<!-- Generator: Adobe Illustrator 18.0.0, SVG Export Plug-In  -->
<svg version="1.1"
	 xmlns="http://www.w3.org/2000/svg" xmlns:xlink="http://www.w3.org/1999/xlink" xmlns:a="http://ns.adobe.com/AdobeSVGViewerExtensions/3.0/"
	 x="0px" y="0px" width="427.8px" height="131.3px" viewBox="0 0 427.8 131.3" enable-background="new 0 0 427.8 131.3"
	 xml:space="preserve">
<defs>
</defs>
<g>
	<g>
		<g>
			<g>
				<path fill="#FFFFFF" stroke="#000000" stroke-width="5.151" d="M94.1,64c-0.1,0.5-0.3,1.6-0.6,3.4c-0.1,0.9-0.5,1.7-1.1,2.1
					c-0.5,0.2-1.3,0.3-2.4,0.3c-3.1,0-7-0.4-11.7-1.3c-5-0.8-8.5-1.8-10.3-3c-0.8-0.5-1.5-2-2.3-4.7c-1-3.5-2.2-6.4-3.6-8.7
					c-3.6,0.3-8.9,1-15.8,2.2c-6.9,1.2-11.4,2.2-13.5,3c-1.4,2.2-3.3,5-5.7,8.3c-0.3,0.7-0.6,1.4-0.9,2.1c-0.3,0.7-1.2,1.2-2.5,1.6
					c-0.3,0.1-0.7,0.2-1.3,0.2c-2.3,0-6.1-0.7-11.5-2c-5.4-1.3-8.1-2.2-8.3-2.6c-0.4-0.7,0.5-2.5,2.7-5.4c3-4.2,4.8-6.8,5.3-7.7
					c-2-1.1-3-2.2-3-3.3c0-0.3,0-0.6,0.1-0.9c0.2-0.6,3.1-1.8,8.7-3.4L34.9,9.5C35.1,8.8,35.2,7.7,35,6c-0.2-1.4,0.1-2.3,0.9-2.7
					c0.5-0.3,1.6-0.4,3.4-0.4c4.5,0,10.8,0.6,19.1,1.9C66.6,6,71.6,7.1,73.2,8.1c0.6,5.8,2.7,14.5,6.4,26.2
					C84.3,48.7,89.2,58.6,94.1,64z M56.9,40.2c-1.2-3.3-2-5.5-2.3-6.5c-1-3.5-1.8-7.2-2.1-10.9c-1.9,2.6-4.1,6.1-6.7,10.7
					c-2.8,4.8-4.2,7.8-4.4,9C43.2,41.9,48.4,41.2,56.9,40.2z"/>
				<path fill="#FFFFFF" stroke="#000000" stroke-width="5.151" d="M167.2,28.2c2.2,2.5,3.3,5.6,3.3,9.3c0,4.9-1.8,10.2-5.3,15.9
					c-3.4,5.3-7.3,9.5-11.7,12.6c-0.5,0.9-0.8,1.4-0.9,1.6c-0.4,0.6-1,1.1-1.7,1.4c-1.3,0.6-3.5,0.9-6.7,0.9c-2.7,0-5.4-0.5-8.1-1.4
					c-0.3-0.1-2.5-1-6.5-2.8c0.1,0.4,0.4,0.9,1,1.7c0.3,0.5,0.3,1,0,1.4c-0.8,1.1-2,1.8-3.7,1.9c-2.2,0.1-6.1-0.3-11.9-1.2
					c-5.7-0.9-9-1.7-9.9-2.5c-0.6-0.5-0.1-1.4,1.3-2.8c0.5-0.5,0.7-1.6,0.7-3.3V8.4c0-0.3-0.4-0.7-1.4-1.4c-0.9-0.7-1.3-1.3-1.1-1.8
					c0.6-1.7,2.5-2.5,5.9-2.5c3.1,0,7.3,0.5,12.4,1.5c5.1,1,8.1,2,8.9,3.1c0.4,0.5,0.1,1.3-0.9,2.5c-1,1.2-1.6,2.2-1.8,3v12.9
					c7.7-4.2,13.9-6.2,18.5-5.9c3.2,0.2,6.7,1.1,10.4,2.7C162.2,23.9,165.2,25.9,167.2,28.2z M150.5,28.6c-3.6,0.8-7.7,2.4-12.2,4.8
					c-4.5,2.4-7.4,4.4-8.7,6v21.2c0.7,0.4,1.8,0.9,3.4,1.4c3.1,0.3,6.9-3.5,11.4-11.5c4.4-7.8,6.5-14.2,6.5-19.3
					C150.9,30.1,150.8,29.3,150.5,28.6z"/>
				<path fill="#FFFFFF" stroke="#000000" stroke-width="5.151" d="M233.1,60c0,2.9-1.7,5.2-5.2,6.9c-3.5,1.7-8.4,2.6-14.6,2.7
					c-1.5,0-3.2-0.2-5-0.5c-3.2-0.5-4.9-0.7-5.1-0.8c-1.7-0.2-3.4-0.4-5.2-0.7c-1.8-0.2-3.3-0.6-4.5-1.2c-2.1-1-4.1-2.5-6.1-4.3
					c-1.6-1.5-3.2-3-4.7-4.5c-1.5-1.5-2.3-2.4-2.3-2.7c0-0.7,0.9-1.3,2.8-1.6c0.5-0.1,1.3-0.2,2.6-0.2c2.8,0,6.4,0.2,10.8,0.5
					c4.3,0.3,6.7,0.6,7.1,0.9c0.4,0.2,0.9,1.7,1.6,4.5c0.6,2.4,1.6,3.6,3,3.6c2.2,0,3.3-1.6,3.3-4.9c0-4.1-2-6.7-6-7.8
					c-9.1-2.4-15.1-4.5-17.9-6.3c-3.5-2.3-5.3-5.7-5.3-10.2c0-3,1.4-5.8,4.3-8.4c2.9-2.6,6.2-4.2,10.1-4.7c1.7-0.2,7.2,0.8,16.5,3
					c0.9,0.2,3.4,0.4,7.5,0.9c2.9,0.3,5,0.9,6.3,1.6c1.8,1.2,2.8,3.1,3.1,5.7c0.1,1.9,0.1,3.9,0.1,5.8c0.7,1.8,1,2.8,1,3.1
					c0,1.5-1.3,2.3-3.9,2.5c-1.3,0.1-4-0.2-7.9-0.9c-4.3-0.8-7-1.6-8.1-2.4c-0.3-0.2-0.6-2.2-0.9-5.9c-0.3-3.5-0.9-5.3-2-5.3
					c-1.4,0-2.7,1-3.9,3.1c-1.2,2-1.8,4.2-1.8,6.4c0,2.8,1.1,4.5,3.3,5.3c4.6,1.4,9.3,2.8,13.9,4.3c4.6,1.4,7.8,2.9,9.6,4.4
					C231.9,54,233.1,56.7,233.1,60z"/>
				<path fill="#FFFFFF" stroke="#000000" stroke-width="5.151" d="M290.7,29.4c-0.1,1-0.7,1.8-1.7,2.5c-1,0.7-2.2,1.1-3.4,1.1
					c-0.4,0-0.7,0-1-0.1c-1.3-0.3-4.3-0.4-9-0.4v31c0-0.1,0.3,0.4,0.9,1.3c0.6,0.9,0.9,1.7,0.9,2.3c0,1.5-1.9,2.3-5.7,2.4
					c-2,0-5.7-0.4-11-1.4c-5.8-1.1-8.9-2-9.3-2.9c-0.2-0.4,0.1-1.1,1-2.3c0.9-1.2,1.3-2.1,1.3-2.7V32.4h-4.8c-1.8,0-4-0.9-6.7-2.7
					c-2.7-1.8-4-3.2-4-4.2c0-0.8,0.5-1.5,1.6-2.1c1.1-0.6,2.3-1,3.6-1h10.3v-7.1c-1.4-1-2.1-2.2-2.1-3.4c0-1.1,0.9-1.8,2.6-2.1
					c0.9-0.1,2.1-0.2,3.6-0.2c3.5,0,7.6,0.3,12.4,0.9c4.7,0.6,7.8,1.2,9.2,1.9c0.7,0.3,1,0.7,1,1.1c0,0.5-0.8,1.3-2.3,2.4
					c-1.5,1-2.3,1.8-2.4,2.2v4.2h4.6c0.9,0,2.9,1,6,2.9C289.2,27.2,290.7,28.6,290.7,29.4z"/>
				<path fill="#FFFFFF" stroke="#000000" stroke-width="5.151" d="M354.1,54.1c0.9,0.8-1,3.1-5.6,7c-4.9,4.1-9.8,6.9-14.5,8.4
					c-0.6,0.1-1.4,0.2-2.6,0.2c-3.7,0-8.5-0.6-14.4-1.8c-6.4-1.3-10.6-2.6-12.6-4.1c-5.5-3.9-8.3-9.4-8.3-16.3
					c0-6.6,2.4-12.4,7.3-17.4c5.2-5.5,11.9-8.3,20-8.4c2.9-0.1,6.5,0.4,10.7,1.3c5.1,1.1,9.4,2.6,12.7,4.5c0.9,0.5,1.7,1.9,2.4,4.2
					c1,2.5,1.4,5,1.4,7.4c0,3.6-1,6-3.1,7.4c-9.8,1.7-19.7,2.7-29.9,2.9c-0.2,2.6,0.4,5.3,1.7,8.1c1.3,2.8,2.7,4.3,4.1,4.3
					c1.9,0.1,4.1-0.8,6.8-2.6c2.4-1.5,3.8-2.8,4.4-3.8c0.7-1.6,1.6-3.2,2.7-4.9c1.5-0.1,4.5,0.3,9,1.3
					C350.7,52.5,353.3,53.4,354.1,54.1z M328.7,30c-1.6-0.1-3.8,1.3-6.7,4.2c-2.9,2.9-4.5,5.7-5,8.4c4.2-0.1,7.6-0.7,10.2-1.7
					c1.5-0.6,2.3-3.2,2.3-7.9C329.5,31.2,329.2,30.1,328.7,30z"/>
				<path fill="#FFFFFF" stroke="#000000" stroke-width="5.151" d="M418.6,26.2c0.4,0.8-0.1,1.5-1.6,2c-1.1,0.3-2.2,0.7-3.3,1
					c-6,5-14.1,11.8-24.3,20.3c0,8.3,0,12.6,0.1,12.9c0.1,0.3,0.4,0.9,1.1,2c0.6,1.1,0.9,1.9,0.9,2.6c0,1-0.8,1.7-2.4,2
					c-1,0.3-2.5,0.5-4.3,0.5c-3.6,0-7.6-0.5-12-1.4c-5.5-1-8.3-2.4-8.3-4c0-0.5,0.4-1.2,1.1-2.3c0.8-1,1.1-1.9,1.1-2.6V28.1
					c-1-2.9-1.6-4.5-1.6-4.6c0-1.6,1.3-2.6,4-3.1c1.1-0.2,2.5-0.2,4.1-0.2c3.3,0,6.8,0.3,10.5,0.9c3.7,0.6,5.8,1.2,6.5,1.9
					c0.2,0.2,0.3,0.5,0.3,0.8c0,0.3-0.7,1.5-2,3.8v3.8c2.3-2.3,4.5-4.5,6.7-6.7c2.9-2.8,5.1-4.3,6.6-4.5c2.1-0.2,5.3,0.5,9.5,2
					C415.7,23.8,418.1,25.1,418.6,26.2z"/>
			</g>
		</g>
	</g>
	<g>
		<g>
			<g>
				<path fill="#FFFFFF" stroke="#000000" stroke-width="1.5129" d="M94.1,64c-0.1,0.5-0.3,1.6-0.6,3.4c-0.1,0.9-0.5,1.7-1.1,2.1
					c-0.5,0.2-1.3,0.3-2.4,0.3c-3.1,0-7-0.4-11.7-1.3c-5-0.8-8.5-1.8-10.3-3c-0.8-0.5-1.5-2-2.3-4.7c-1-3.5-2.2-6.4-3.6-8.7
					c-3.6,0.3-8.9,1-15.8,2.2c-6.9,1.2-11.4,2.2-13.5,3c-1.4,2.2-3.3,5-5.7,8.3c-0.3,0.7-0.6,1.4-0.9,2.1c-0.3,0.7-1.2,1.2-2.5,1.6
					c-0.3,0.1-0.7,0.2-1.3,0.2c-2.3,0-6.1-0.7-11.5-2c-5.4-1.3-8.1-2.2-8.3-2.6c-0.4-0.7,0.5-2.5,2.7-5.4c3-4.2,4.8-6.8,5.3-7.7
					c-2-1.1-3-2.2-3-3.3c0-0.3,0-0.6,0.1-0.9c0.2-0.6,3.1-1.8,8.7-3.4L34.9,9.5C35.1,8.8,35.2,7.7,35,6c-0.2-1.4,0.1-2.3,0.9-2.7
					c0.5-0.3,1.6-0.4,3.4-0.4c4.5,0,10.8,0.6,19.1,1.9C66.6,6,71.6,7.1,73.2,8.1c0.6,5.8,2.7,14.5,6.4,26.2
					C84.3,48.7,89.2,58.6,94.1,64z M56.9,40.2c-1.2-3.3-2-5.5-2.3-6.5c-1-3.5-1.8-7.2-2.1-10.9c-1.9,2.6-4.1,6.1-6.7,10.7
					c-2.8,4.8-4.2,7.8-4.4,9C43.2,41.9,48.4,41.2,56.9,40.2z"/>
				<path fill="#FFFFFF" stroke="#000000" stroke-width="1.5129" d="M167.2,28.2c2.2,2.5,3.3,5.6,3.3,9.3c0,4.9-1.8,10.2-5.3,15.9
					c-3.4,5.3-7.3,9.5-11.7,12.6c-0.5,0.9-0.8,1.4-0.9,1.6c-0.4,0.6-1,1.1-1.7,1.4c-1.3,0.6-3.5,0.9-6.7,0.9c-2.7,0-5.4-0.5-8.1-1.4
					c-0.3-0.1-2.5-1-6.5-2.8c0.1,0.4,0.4,0.9,1,1.7c0.3,0.5,0.3,1,0,1.4c-0.8,1.1-2,1.8-3.7,1.9c-2.2,0.1-6.1-0.3-11.9-1.2
					c-5.7-0.9-9-1.7-9.9-2.5c-0.6-0.5-0.1-1.4,1.3-2.8c0.5-0.5,0.7-1.6,0.7-3.3V8.4c0-0.3-0.4-0.7-1.4-1.4c-0.9-0.7-1.3-1.3-1.1-1.8
					c0.6-1.7,2.5-2.5,5.9-2.5c3.1,0,7.3,0.5,12.4,1.5c5.1,1,8.1,2,8.9,3.1c0.4,0.5,0.1,1.3-0.9,2.5c-1,1.2-1.6,2.2-1.8,3v12.9
					c7.7-4.2,13.9-6.2,18.5-5.9c3.2,0.2,6.7,1.1,10.4,2.7C162.2,23.9,165.2,25.9,167.2,28.2z M150.5,28.6c-3.6,0.8-7.7,2.4-12.2,4.8
					c-4.5,2.4-7.4,4.4-8.7,6v21.2c0.7,0.4,1.8,0.9,3.4,1.4c3.1,0.3,6.9-3.5,11.4-11.5c4.4-7.8,6.5-14.2,6.5-19.3
					C150.9,30.1,150.8,29.3,150.5,28.6z"/>
				<path fill="#FFFFFF" stroke="#000000" stroke-width="1.5129" d="M233.1,60c0,2.9-1.7,5.2-5.2,6.9c-3.5,1.7-8.4,2.6-14.6,2.7
					c-1.5,0-3.2-0.2-5-0.5c-3.2-0.5-4.9-0.7-5.1-0.8c-1.7-0.2-3.4-0.4-5.2-0.7c-1.8-0.2-3.3-0.6-4.5-1.2c-2.1-1-4.1-2.5-6.1-4.3
					c-1.6-1.5-3.2-3-4.7-4.5c-1.5-1.5-2.3-2.4-2.3-2.7c0-0.7,0.9-1.3,2.8-1.6c0.5-0.1,1.3-0.2,2.6-0.2c2.8,0,6.4,0.2,10.8,0.5
					c4.3,0.3,6.7,0.6,7.1,0.9c0.4,0.2,0.9,1.7,1.6,4.5c0.6,2.4,1.6,3.6,3,3.6c2.2,0,3.3-1.6,3.3-4.9c0-4.1-2-6.7-6-7.8
					c-9.1-2.4-15.1-4.5-17.9-6.3c-3.5-2.3-5.3-5.7-5.3-10.2c0-3,1.4-5.8,4.3-8.4c2.9-2.6,6.2-4.2,10.1-4.7c1.7-0.2,7.2,0.8,16.5,3
					c0.9,0.2,3.4,0.4,7.5,0.9c2.9,0.3,5,0.9,6.3,1.6c1.8,1.2,2.8,3.1,3.1,5.7c0.1,1.9,0.1,3.9,0.1,5.8c0.7,1.8,1,2.8,1,3.1
					c0,1.5-1.3,2.3-3.9,2.5c-1.3,0.1-4-0.2-7.9-0.9c-4.3-0.8-7-1.6-8.1-2.4c-0.3-0.2-0.6-2.2-0.9-5.9c-0.3-3.5-0.9-5.3-2-5.3
					c-1.4,0-2.7,1-3.9,3.1c-1.2,2-1.8,4.2-1.8,6.4c0,2.8,1.1,4.5,3.3,5.3c4.6,1.4,9.3,2.8,13.9,4.3c4.6,1.4,7.8,2.9,9.6,4.4
					C231.9,54,233.1,56.7,233.1,60z"/>
				<path fill="#FFFFFF" stroke="#000000" stroke-width="1.5129" d="M290.7,29.4c-0.1,1-0.7,1.8-1.7,2.5c-1,0.7-2.2,1.1-3.4,1.1
					c-0.4,0-0.7,0-1-0.1c-1.3-0.3-4.3-0.4-9-0.4v31c0-0.1,0.3,0.4,0.9,1.3c0.6,0.9,0.9,1.7,0.9,2.3c0,1.5-1.9,2.3-5.7,2.4
					c-2,0-5.7-0.4-11-1.4c-5.8-1.1-8.9-2-9.3-2.9c-0.2-0.4,0.1-1.1,1-2.3c0.9-1.2,1.3-2.1,1.3-2.7V32.4h-4.8c-1.8,0-4-0.9-6.7-2.7
					c-2.7-1.8-4-3.2-4-4.2c0-0.8,0.5-1.5,1.6-2.1c1.1-0.6,2.3-1,3.6-1h10.3v-7.1c-1.4-1-2.1-2.2-2.1-3.4c0-1.1,0.9-1.8,2.6-2.1
					c0.9-0.1,2.1-0.2,3.6-0.2c3.5,0,7.6,0.3,12.4,0.9c4.7,0.6,7.8,1.2,9.2,1.9c0.7,0.3,1,0.7,1,1.1c0,0.5-0.8,1.3-2.3,2.4
					c-1.5,1-2.3,1.8-2.4,2.2v4.2h4.6c0.9,0,2.9,1,6,2.9C289.2,27.2,290.7,28.6,290.7,29.4z"/>
				<path fill="#FFFFFF" stroke="#000000" stroke-width="1.5129" d="M354.1,54.1c0.9,0.8-1,3.1-5.6,7c-4.9,4.1-9.8,6.9-14.5,8.4
					c-0.6,0.1-1.4,0.2-2.6,0.2c-3.7,0-8.5-0.6-14.4-1.8c-6.4-1.3-10.6-2.6-12.6-4.1c-5.5-3.9-8.3-9.4-8.3-16.3
					c0-6.6,2.4-12.4,7.3-17.4c5.2-5.5,11.9-8.3,20-8.4c2.9-0.1,6.5,0.4,10.7,1.3c5.1,1.1,9.4,2.6,12.7,4.5c0.9,0.5,1.7,1.9,2.4,4.2
					c1,2.5,1.4,5,1.4,7.4c0,3.6-1,6-3.1,7.4c-9.8,1.7-19.7,2.7-29.9,2.9c-0.2,2.6,0.4,5.3,1.7,8.1c1.3,2.8,2.7,4.3,4.1,4.3
					c1.9,0.1,4.1-0.8,6.8-2.6c2.4-1.5,3.8-2.8,4.4-3.8c0.7-1.6,1.6-3.2,2.7-4.9c1.5-0.1,4.5,0.3,9,1.3
					C350.7,52.5,353.3,53.4,354.1,54.1z M328.7,30c-1.6-0.1-3.8,1.3-6.7,4.2c-2.9,2.9-4.5,5.7-5,8.4c4.2-0.1,7.6-0.7,10.2-1.7
					c1.5-0.6,2.3-3.2,2.3-7.9C329.5,31.2,329.2,30.1,328.7,30z"/>
				<path fill="#FFFFFF" stroke="#000000" stroke-width="1.5129" d="M418.6,26.2c0.4,0.8-0.1,1.5-1.6,2c-1.1,0.3-2.2,0.7-3.3,1
					c-6,5-14.1,11.8-24.3,20.3c0,8.3,0,12.6,0.1,12.9c0.1,0.3,0.4,0.9,1.1,2c0.6,1.1,0.9,1.9,0.9,2.6c0,1-0.8,1.7-2.4,2
					c-1,0.3-2.5,0.5-4.3,0.5c-3.6,0-7.6-0.5-12-1.4c-5.5-1-8.3-2.4-8.3-4c0-0.5,0.4-1.2,1.1-2.3c0.8-1,1.1-1.9,1.1-2.6V28.1
					c-1-2.9-1.6-4.5-1.6-4.6c0-1.6,1.3-2.6,4-3.1c1.1-0.2,2.5-0.2,4.1-0.2c3.3,0,6.8,0.3,10.5,0.9c3.7,0.6,5.8,1.2,6.5,1.9
					c0.2,0.2,0.3,0.5,0.3,0.8c0,0.3-0.7,1.5-2,3.8v3.8c2.3-2.3,4.5-4.5,6.7-6.7c2.9-2.8,5.1-4.3,6.6-4.5c2.1-0.2,5.3,0.5,9.5,2
					C415.7,23.8,418.1,25.1,418.6,26.2z"/>
			</g>
		</g>
	</g>
	<g>
		<g>
			<g>
				<path fill="#FFFFFF" d="M404.6,67.3v3h-9.3l1.7-1.1v-8.6l-1.7-1.1h6.3l-1.7,1.1v8.8h2.1L404.6,67.3z"/>
				<path fill="#FFFFFF" d="M414.1,67.3v3h-9.3l1.7-1.1v-8.6l-1.7-1.1h6.3l-1.7,1.1v8.8h2.1L414.1,67.3z"/>
				<path fill="#FFFFFF" d="M423.2,59.4V63c-0.3-0.8-0.6-1.4-1-1.8c-0.3-0.3-0.7-0.6-1.1-0.8c-0.3-0.1-0.5-0.2-0.7-0.2
					c-0.4,0-0.7,0.1-1,0.3c-0.3,0.2-0.6,0.5-0.8,0.9c-0.4,0.9-0.6,2-0.6,3.4c0,1.3,0.1,2.3,0.3,2.9c0.3,0.9,0.7,1.4,1.4,1.7
					c0.3,0.1,0.7,0.2,1.1,0.2c0.9,0,1.6-0.4,2-1.1c0.2-0.3,0.3-0.7,0.3-1.2c0.4,0.1,0.6,0.3,0.6,0.6c0,0.7-0.3,1.3-0.9,1.8
					c-0.6,0.5-1.4,0.8-2.4,0.8c-1.6,0-3-0.6-4.2-1.8c-1-1-1.5-2.2-1.5-3.6c0-0.9,0.3-1.8,0.7-2.7c0.6-1,1.3-1.8,2.4-2.4
					c0.9-0.5,1.7-0.7,2.6-0.7c0.7,0,1.3,0.2,1.7,0.6L423.2,59.4z"/>
				<path fill="#FFFFFF" d="M426,68.2c0.5,0,0.9,0.1,1.3,0.4c0.4,0.2,0.5,0.5,0.5,0.8c0,0.3-0.2,0.6-0.5,0.8
					c-0.4,0.2-0.8,0.3-1.3,0.3c-0.5,0-0.9-0.1-1.3-0.3c-0.4-0.2-0.5-0.5-0.5-0.8c0-0.3,0.2-0.6,0.5-0.8
					C425.1,68.3,425.5,68.2,426,68.2z"/>
			</g>
		</g>
	</g>
	<g>
		<g>
			<g>
				<path fill="#FFFFFF" d="M66.8,107.2h-1l-1.1-2h-0.5c-0.6,0.8-1.3,1.3-2,1.7c-0.7,0.3-1.4,0.5-2.3,0.5c-2.1,0-3.7-0.9-4.9-2.8
					c-1.2-1.9-1.8-4.4-1.8-7.7c0-3.2,0.6-5.7,1.9-7.5c1.3-1.8,3-2.7,5.2-2.7c1.4,0,2.6,0.4,3.6,1.3c1,0.8,1.7,2,2.2,3.5L63.5,92
					c-0.2-0.9-0.6-1.6-1.2-2.1c-0.6-0.5-1.2-0.7-2-0.7c-1.4,0-2.4,0.7-3.1,2c-0.7,1.3-1,3.3-1,5.8c0,2.6,0.3,4.6,1,5.9
					c0.7,1.3,1.7,2,3.1,2c1.1,0,2-0.4,2.8-1.3c0.7-0.9,1.1-1.9,1.1-3.2v-0.2h-3.8v-2.4h6.5V107.2z"/>
				<path fill="#FFFFFF" d="M72.7,106.9V87.2h12.5v2.4h-9.6v5.6h7v2.4h-7v6.8h10v2.4H72.7z"/>
				<path fill="#FFFFFF" d="M90.9,106.9V87.2h3.8l4.6,10.2c0.5,1.1,1,2.2,1.4,3.3c0.4,1.1,0.9,2.2,1.2,3.2h0.2V87.2h2.4v19.7h-3.7
					l-5-11c-0.5-1-0.9-2.1-1.3-3.1c-0.4-1-0.8-2-1.1-3h-0.2v17H90.9z"/>
				<path fill="#FFFFFF" d="M110.8,106.9V87.2h12.5v2.4h-9.6v5.6h7v2.4h-7v6.8h10v2.4H110.8z"/>
				<path fill="#FFFFFF" d="M129.1,106.9V87.2h5.2c2.5,0,4.3,0.5,5.6,1.4c1.3,0.9,1.9,2.3,1.9,4.1c0,1.3-0.3,2.3-1,3.2
					c-0.7,0.8-1.7,1.5-3,1.9l5.2,9.2h-3.3l-4.8-8.7h-3v8.7H129.1z M132,89.5v6.3h2c1.7,0,3-0.3,3.8-0.8c0.8-0.5,1.2-1.3,1.2-2.4
					c0-1.1-0.4-1.9-1.2-2.4c-0.8-0.5-2.1-0.8-3.7-0.8H132z"/>
				<path fill="#FFFFFF" d="M158.1,106.9l-1.4-4.2H149l-1.4,4.2h-2.9l6.6-19.7h3.2l6.6,19.7H158.1z M149.7,100.4h6.4l-3.2-10.3
					L149.7,100.4z"/>
				<path fill="#FFFFFF" d="M165.4,106.9V87.2h2.9v17.3h9.2v2.4H165.4z"/>
				<path fill="#FFFFFF" d="M200.7,101.4c-0.2,1.9-0.9,3.3-2,4.4c-1.1,1.1-2.5,1.6-4.1,1.6c-2.2,0-3.8-0.9-5-2.7
					c-1.2-1.8-1.7-4.4-1.7-7.7c0-3.4,0.6-5.9,1.7-7.7c1.1-1.8,2.8-2.7,5-2.7c1.6,0,2.9,0.5,3.9,1.4c1.1,1,1.8,2.3,2.2,4.1l-2.7,0.6
					c-0.2-1.3-0.6-2.2-1.2-2.8c-0.6-0.6-1.3-0.9-2.2-0.9c-1.3,0-2.3,0.6-2.9,1.9c-0.6,1.3-0.9,3.3-0.9,6c0,2.8,0.3,4.8,0.9,6
					c0.6,1.3,1.6,1.9,2.9,1.9c1,0,1.7-0.3,2.3-1c0.6-0.7,0.9-1.7,1.1-3.1L200.7,101.4z"/>
				<path fill="#FFFFFF" d="M204.2,97c0-3.4,0.6-5.9,1.7-7.7c1.2-1.8,2.8-2.7,5-2.7c2.2,0,3.8,0.9,5,2.7c1.2,1.8,1.7,4.3,1.7,7.7
					c0,3.4-0.6,5.9-1.7,7.7c-1.2,1.8-2.8,2.7-5,2.7c-2.2,0-3.8-0.9-5-2.7C204.8,103,204.2,100.4,204.2,97z M207.1,97
					c0,2.8,0.3,4.8,0.9,6c0.6,1.3,1.6,1.9,2.9,1.9c1.3,0,2.3-0.6,2.9-1.9c0.6-1.3,0.9-3.3,0.9-6.1c0-2.8-0.3-4.8-0.9-6
					c-0.6-1.3-1.6-1.9-2.9-1.9c-1.3,0-2.3,0.6-2.9,1.9C207.5,92.3,207.1,94.3,207.1,97z"/>
				<path fill="#FFFFFF" d="M222.4,106.9V87.2h3.8l4.6,10.2c0.5,1.1,1,2.2,1.4,3.3c0.4,1.1,0.9,2.2,1.2,3.2h0.2V87.2h2.4v19.7h-3.7
					l-5-11c-0.5-1-0.9-2.1-1.3-3.1c-0.4-1-0.8-2-1.1-3h-0.2v17H222.4z"/>
				<path fill="#FFFFFF" d="M245.2,106.9V89.6h-5.9v-2.4h14.5v2.4h-5.8v17.3H245.2z"/>
				<path fill="#FFFFFF" d="M257.2,106.9V87.2h5.2c2.5,0,4.3,0.5,5.6,1.4c1.3,0.9,1.9,2.3,1.9,4.1c0,1.3-0.3,2.3-1,3.2
					c-0.7,0.8-1.7,1.5-3,1.9l5.2,9.2h-3.3l-4.8-8.7h-3v8.7H257.2z M260.1,89.5v6.3h2c1.7,0,3-0.3,3.8-0.8c0.8-0.5,1.2-1.3,1.2-2.4
					c0-1.1-0.4-1.9-1.2-2.4c-0.8-0.5-2.1-0.8-3.7-0.8H260.1z"/>
				<path fill="#FFFFFF" d="M286.3,106.9l-1.4-4.2h-7.8l-1.4,4.2h-2.9l6.6-19.7h3.2l6.6,19.7H286.3z M277.8,100.4h6.4L281,90.1
					L277.8,100.4z"/>
				<path fill="#FFFFFF" d="M305,101.4c-0.2,1.9-0.9,3.3-2,4.4c-1.1,1.1-2.5,1.6-4.1,1.6c-2.2,0-3.8-0.9-5-2.7
					c-1.2-1.8-1.7-4.4-1.7-7.7c0-3.4,0.6-5.9,1.7-7.7c1.1-1.8,2.8-2.7,5-2.7c1.6,0,2.9,0.5,3.9,1.4c1.1,1,1.8,2.3,2.2,4.1l-2.7,0.6
					c-0.2-1.3-0.6-2.2-1.2-2.8c-0.6-0.6-1.3-0.9-2.2-0.9c-1.3,0-2.3,0.6-2.9,1.9c-0.6,1.3-0.9,3.3-0.9,6c0,2.8,0.3,4.8,0.9,6
					c0.6,1.3,1.6,1.9,2.9,1.9c1,0,1.7-0.3,2.3-1c0.6-0.7,0.9-1.7,1.1-3.1L305,101.4z"/>
				<path fill="#FFFFFF" d="M313,106.9V89.6h-5.9v-2.4h14.5v2.4h-5.8v17.3H313z"/>
				<path fill="#FFFFFF" d="M324,106.9v-1.9h1.7v-16H324v-1.9h6.3v1.9h-1.7v16h1.7v1.9H324z"/>
				<path fill="#FFFFFF" d="M335.6,106.9V87.2h3.8l4.6,10.2c0.5,1.1,1,2.2,1.4,3.3c0.4,1.1,0.9,2.2,1.2,3.2h0.2V87.2h2.4v19.7h-3.7
					l-5-11c-0.5-1-0.9-2.1-1.3-3.1c-0.4-1-0.8-2-1.1-3H338v17H335.6z"/>
				<path fill="#FFFFFF" d="M368,107.2h-1l-1.1-2h-0.5c-0.6,0.8-1.3,1.3-2,1.7c-0.7,0.3-1.4,0.5-2.3,0.5c-2.1,0-3.7-0.9-4.9-2.8
					c-1.2-1.9-1.8-4.4-1.8-7.7c0-3.2,0.6-5.7,1.9-7.5c1.3-1.8,3-2.7,5.2-2.7c1.4,0,2.6,0.4,3.6,1.3c1,0.8,1.7,2,2.2,3.5l-2.7,0.6
					c-0.2-0.9-0.6-1.6-1.2-2.1c-0.6-0.5-1.2-0.7-2-0.7c-1.4,0-2.4,0.7-3.1,2c-0.7,1.3-1,3.3-1,5.8c0,2.6,0.3,4.6,1,5.9
					c0.7,1.3,1.7,2,3.1,2c1.1,0,2-0.4,2.8-1.3c0.7-0.9,1.1-1.9,1.1-3.2v-0.2h-3.8v-2.4h6.5V107.2z"/>
			</g>
		</g>
	</g>
</g>
<text transform="matrix(1 0 0 1 1.1761 127.6236)" fill="#FFFFFF" font-family="'BellGothicBT-Bold'" font-size="15.6088">PA# 014031</text>
</svg>